<mxfile host="app.diagrams.net" modified="2024-01-26T04:15:48.450Z" agent="Mozilla/5.0 (Macintosh; Intel Mac OS X 10_15_7) AppleWebKit/537.36 (KHTML, like Gecko) Chrome/120.0.0.0 Safari/537.36" version="23.0.2" etag="Kr2tfVf6Oijpz6F3Ut1Z" type="github">
  <diagram name="第 1 页" id="P5m4ya7pIiUwor9umQGi">
    <mxGraphModel>
      <root>
        <mxCell id="0" />
        <mxCell id="1" parent="0" />
      </root>
    </mxGraphModel>
  </diagram>
</mxfile>
